# xmcd
#
# Track frame offsets:
#	150
#	12691
#	28244
#	56837
#	78692
#	93134
#	106385
#	120139
#	131755
#	155587
#	168341
#	181045
#	194506
#	201015
#	217393
#	237592
#	251722
#	273879
#	290903
#	306421
#
# Disc length: 4413
#
# Revision: 1
# Processed by: cddbd v1.5.1PL0 Copyright (c) Steve Scherf et al.
# Submitted via: CDex 1.50beta10
# Normalized: r0:DSETVAR1,TDELIM( - )
#
DISCID=32113b14
DTITLE=Various Artist - 60 Blues Guitar Greats
DYEAR=2002
DGENRE=Blues
TTITLE0=Elmore James - Dust My Broom
TTITLE1=Bo Diddley - Road Runner
TTITLE2=Buddy Guy and Junior Wells - First Time I Met The Blues
TTITLE3=Mick Abraham's Blodwyn Pig - Cat Squirrel
TTITLE4=Roy Gaines - Okie Dokie Stomp
TTITLE5=Lightnin' Slin - It's Mighty Crazy
TTITLE6=Robert Nighthawk - Black Angel Blues
TTITLE7=Gene Phillips - Rock Bottom
TTITLE8=Blues Band and Dave Kelly - You Shook Me
TTITLE9=Jackie Brenton and Willie Kizart - Rocket 88
TTITLE10=Clarence Gatemouth Brown - Boogie Rambler
TTITLE11=J.B. Hutto - Speak My Mind
TTITLE12=Eric Clapton and Jimmy Page - Choker
TTITLE13=Fleetwood Mac and Jeremy Spencer - Talk To Me Baby
TTITLE14=Jimmy Johnson - Pepper's Hangout
TTITLE15=John Lee Hooker - I'm In The Mood
TTITLE16=Magic Slim - Soul Blues
TTITLE17=Albert Collins - Deep Freeze
TTITLE18=Louisiana Red - Lightnin' Bug
TTITLE19=Baby Face Leroy Trio and Muddy Waters - Rollin' And Tumblin Pts 1&2
EXTD=YEAR: 2002
EXTT0=
EXTT1=
EXTT2=
EXTT3=
EXTT4=
EXTT5=
EXTT6=
EXTT7=
EXTT8=
EXTT9=
EXTT10=
EXTT11=
EXTT12=
EXTT13=
EXTT14=
EXTT15=
EXTT16=
EXTT17=
EXTT18=
EXTT19=
PLAYORDER=
